<svg width="48" height="49" viewBox="0 0 48 49" fill="none" xmlns="http://www.w3.org/2000/svg">
<path d="M42.0001 9.12208H35.7721C35.8298 8.16476 35.7119 7.20494 35.4241 6.29008C35.0168 4.99804 34.2695 3.83939 33.2602 2.93572C32.251 2.03204 31.0171 1.41665 29.6881 1.15408C28.5772 0.926192 27.4294 0.948368 26.3281 1.219C25.2266 1.48964 24.1993 2.00195 23.3204 2.7188C22.4417 3.43565 21.7334 4.33907 21.247 5.36357C20.7605 6.38807 20.5081 7.50797 20.5081 8.64208C20.5081 8.79808 20.5081 8.96608 20.5081 9.12208H14.2921C12.9405 9.12526 11.6451 9.66359 10.6894 10.6193C9.73364 11.5751 9.19529 12.8705 9.19212 14.2221V19.778C8.14061 19.6945 7.08318 19.8295 6.08639 20.1746C5.08959 20.5196 4.175 21.0673 3.40014 21.7831C2.6253 22.4987 2.00697 23.3671 1.58408 24.3335C1.16119 25.2998 0.942871 26.3433 0.942871 27.398C0.942871 28.4528 1.16119 29.4964 1.58408 30.4627C2.00697 31.429 2.6253 32.2973 3.40014 33.0131C4.175 33.7288 5.08959 34.2765 6.08639 34.6216C7.08318 34.9666 8.14061 35.1016 9.19212 35.0181V41.93C9.19529 43.2817 9.73364 44.5771 10.6894 45.5329C11.6451 46.4885 12.9405 47.0269 14.2921 47.03H42.0001C43.3517 47.0269 44.6471 46.4885 45.6028 45.5329C46.5586 44.5771 47.0969 43.2817 47.1001 41.93V14.2221C47.0969 12.8705 46.5586 11.5751 45.6028 10.6193C44.6471 9.66359 43.3517 9.12526 42.0001 9.12208ZM44.1001 41.93C44.0969 42.4861 43.8746 43.0184 43.4815 43.4116C43.0885 43.8046 42.5561 44.0269 42.0001 44.03H14.2921C13.7361 44.0269 13.2038 43.8046 12.8107 43.4116C12.4175 43.0184 12.1953 42.4861 12.1921 41.93V33.146C12.1857 32.9093 12.1237 32.6773 12.0111 32.4689C11.8985 32.2604 11.7386 32.0813 11.5441 31.946C11.2922 31.7764 10.9959 31.6846 10.6921 31.682C10.5121 31.6858 10.3339 31.7182 10.1641 31.778C9.38334 32.0704 8.53827 32.1472 7.71761 32.0002C6.89694 31.8533 6.13095 31.4883 5.50004 30.9433C4.86912 30.3983 4.39655 29.6935 4.13193 28.9029C3.86732 28.1124 3.8204 27.265 3.99612 26.4501C4.13505 25.7969 4.4132 25.1815 4.81161 24.6455C5.21001 24.1096 5.71929 23.666 6.30473 23.3447C6.89018 23.0236 7.538 22.8323 8.20403 22.7843C8.87004 22.7362 9.53861 22.8323 10.1641 23.066C10.3921 23.1488 10.6366 23.1755 10.8771 23.144C11.1176 23.1124 11.3469 23.0234 11.5457 22.8845C11.7446 22.7458 11.9071 22.5611 12.0196 22.3462C12.1321 22.1314 12.1913 21.8926 12.1921 21.65V14.2221C12.1921 13.6651 12.4134 13.131 12.8072 12.7372C13.201 12.3433 13.7352 12.1221 14.2921 12.1221H22.3321C22.5707 12.124 22.8064 12.0684 23.0191 11.9601C23.2318 11.8517 23.4154 11.6939 23.5541 11.4997C23.693 11.3056 23.7832 11.0809 23.8169 10.8446C23.8507 10.6083 23.827 10.3673 23.7481 10.1421C23.5915 9.65738 23.5105 9.15145 23.5081 8.64208C23.5069 7.96712 23.6527 7.29998 23.9354 6.68714C24.2183 6.07429 24.6313 5.53046 25.1458 5.09351C25.6603 4.65658 26.2637 4.33702 26.9143 4.15712C27.5648 3.97721 28.2467 3.94127 28.9126 4.05181C29.5784 4.16234 30.2122 4.41668 30.7697 4.79713C31.3273 5.17759 31.7951 5.67499 32.1409 6.25472C32.4865 6.83444 32.7017 7.48255 32.7713 8.15392C32.8409 8.82527 32.7634 9.50374 32.5441 10.1421C32.4652 10.3673 32.4416 10.6083 32.4754 10.8446C32.5091 11.0809 32.5993 11.3056 32.738 11.4997C32.8769 11.6939 33.0604 11.8517 33.2731 11.9601C33.4858 12.0684 33.7214 12.124 33.9601 12.1221H42.0001C42.557 12.1221 43.0912 12.3433 43.4851 12.7372C43.8788 13.131 44.1001 13.6651 44.1001 14.2221V41.93Z" fill="#1D1C1D"/>
<path d="M35.9998 25.8622H29.9998V20.4502C29.9998 20.0524 29.8417 19.6708 29.5604 19.3895C29.2792 19.1083 28.8976 18.9502 28.4998 18.9502C28.102 18.9502 27.7204 19.1083 27.4391 19.3895C27.1579 19.6708 26.9998 20.0524 26.9998 20.4502V25.8622H21.5998C21.2267 25.8956 20.8796 26.0675 20.6267 26.344C20.374 26.6204 20.2339 26.9815 20.2339 27.3562C20.2339 27.7307 20.374 28.0919 20.6267 28.3684C20.8796 28.6448 21.2267 28.8167 21.5998 28.8502H27.0118V34.8502C27.0452 35.2232 27.2171 35.5703 27.4936 35.8232C27.77 36.076 28.1312 36.2161 28.5058 36.2161C28.8803 36.2161 29.2415 36.076 29.518 35.8232C29.7944 35.5703 29.9663 35.2232 29.9998 34.8502V28.8502H35.9998C36.3976 28.8502 36.7792 28.6921 37.0604 28.4108C37.3417 28.1296 37.4998 27.748 37.4998 27.3502C37.4998 26.9524 37.3417 26.5708 37.0604 26.2895C36.7792 26.0083 36.3976 25.8502 35.9998 25.8502V25.8622Z" fill="#1D1C1D"/>
</svg>
